<svg width="308" height="195" viewBox="0 0 308 195" fill="none" xmlns="http://www.w3.org/2000/svg">
<path d="M4 4V0.5H0.5V4H4ZM244.517 4L247.098 1.63612L246.058 0.5H244.517V4ZM4 191.5H0.5V195H4V191.5ZM304 191.5V195H307.5V191.5H304ZM304 68.9489H307.5V67.5884L306.581 66.585L304 68.9489ZM274.474 4V0.5H266.809L271.829 6.29226L274.474 4ZM304 38.0683L301.355 40.3605L307.5 47.4508V38.0683H304ZM304 4H307.5V0.5H304V4ZM4 7.5H244.517V0.5H4V7.5ZM7.5 191.5V4H0.5V191.5H7.5ZM304 188H4V195H304V188ZM300.5 68.9489V191.5H307.5V68.9489H300.5ZM306.581 66.585L247.098 1.63612L241.936 6.36388L301.419 71.3128L306.581 66.585ZM271.829 6.29226L301.355 40.3605L306.645 35.776L277.119 1.70774L271.829 6.29226ZM300.5 4V38.0683H307.5V4H300.5ZM274.474 7.5H304V0.5H274.474V7.5Z" fill="#9696BE"/>
</svg>
