<svg width="83" height="83" viewBox="0 0 83 83" fill="none" xmlns="http://www.w3.org/2000/svg">
<path d="M41.499 0C18.616 0 0 18.617 0 41.5C0 64.384 18.616 83.001 41.499 83.001C64.382 83.001 82.999 64.384 82.999 41.5C82.999 18.617 64.381 0 41.499 0ZM41.499 77.001C21.925 77.001 5.999 61.075 5.999 41.5C5.999 21.925 21.924 6 41.499 6C61.074 6 76.999 21.925 76.999 41.5C76.999 61.075 61.074 77.001 41.499 77.001Z" fill="#62F2E8"/>
<path d="M53.507 45.32C53.491 45.32 53.477 45.32 53.461 45.32L44.499 45.454V22C44.499 20.343 43.156 19 41.499 19C39.842 19 38.499 20.343 38.499 22V48.5C38.499 48.506 38.501 48.512 38.501 48.518C38.501 48.528 38.499 48.537 38.499 48.545C38.501 48.667 38.524 48.782 38.54 48.899C38.55 48.972 38.551 49.047 38.565 49.119C38.592 49.248 38.637 49.368 38.68 49.489C38.702 49.552 38.716 49.618 38.742 49.678C38.794 49.801 38.864 49.913 38.931 50.028C38.962 50.079 38.985 50.135 39.018 50.185C39.094 50.296 39.185 50.395 39.275 50.496C39.313 50.538 39.344 50.586 39.384 50.627C39.481 50.723 39.59 50.804 39.699 50.887C39.743 50.92 39.782 50.96 39.827 50.991C39.945 51.071 40.074 51.134 40.203 51.196C40.248 51.217 40.288 51.247 40.334 51.266C40.484 51.329 40.644 51.373 40.806 51.412C40.836 51.419 40.864 51.433 40.895 51.439C41.089 51.478 41.29 51.5 41.496 51.5C41.511 51.5 41.527 51.5 41.542 51.5L53.55 51.32C55.206 51.295 56.529 49.931 56.505 48.275C56.482 46.634 55.143 45.32 53.507 45.32Z" fill="#62F2E8"/>
</svg>
