<svg width="729" height="548" viewBox="0 0 729 548" fill="none" xmlns="http://www.w3.org/2000/svg">
<path d="M364.5 0.017531C163.137 0.017531 0 125.664 0 280.518C0 404.516 104.429 509.616 249.159 546.695C267.452 549.342 274.058 540.664 274.058 533.16C274.058 526.498 273.853 508.88 273.717 485.493C172.272 502.393 150.903 447.783 150.903 447.783C134.295 415.456 110.33 406.778 110.33 406.778C77.3423 389.439 112.949 389.807 112.949 389.807C149.491 391.718 168.718 418.646 168.718 418.646C201.227 461.563 254.011 449.151 274.901 441.928C278.091 423.853 287.591 411.423 297.933 404.499C217.014 397.469 131.926 373.363 131.926 265.879C131.926 235.182 146.051 210.182 169.401 190.547C165.369 183.517 153.022 154.941 172.614 116.302C172.614 116.302 203.118 108.816 272.851 145.071C302.034 138.847 333.016 135.744 363.976 135.587C394.959 135.744 425.918 138.865 455.101 145.071C524.424 108.816 554.906 116.302 554.906 116.302C574.475 154.941 562.127 183.5 558.573 190.547C581.696 210.182 595.821 235.199 595.821 265.879C595.821 373.608 510.619 397.363 429.609 404.218C442.275 412.615 454.144 429.884 454.144 456.093C454.144 493.61 453.689 523.834 453.689 532.968C453.689 540.261 460.067 549.026 478.839 546.204C624.639 509.511 728.954 404.323 728.954 280.5C728.954 125.646 565.818 0 364.454 0L364.5 0.017531Z" fill="#62F2E8"/>
</svg>
