<svg width="473" height="473" viewBox="0 0 473 473" fill="none" xmlns="http://www.w3.org/2000/svg">
<g clip-path="url(#clip0_8_61)">
<path d="M181.37 28.661L163.179 36.1991L174.486 63.4863L192.678 55.9482L181.37 28.661Z" fill="#62F2E8"/>
<path d="M85.4555 113.937L77.9174 132.128L105.205 143.436L112.744 125.244L85.4555 113.937Z" fill="#62F2E8"/>
<path d="M105.201 230.725L77.9141 242.032L85.4522 260.223L112.739 248.916L105.201 230.725Z" fill="#62F2E8"/>
<path d="M367.432 230.739L359.894 248.93L387.182 260.237L394.72 242.046L367.432 230.739Z" fill="#62F2E8"/>
<path d="M387.202 113.952L359.914 125.259L367.453 143.45L394.74 132.143L387.202 113.952Z" fill="#62F2E8"/>
<path d="M291.288 28.6734L279.98 55.9606L298.172 63.4987L309.479 36.2115L291.288 28.6734Z" fill="#62F2E8"/>
<path d="M246.172 0H226.48V49.231H246.172V0Z" fill="#62F2E8"/>
<path d="M111.014 47.8416L97.0894 61.7658L131.894 96.57L145.818 82.6458L111.014 47.8416Z" fill="#62F2E8"/>
<path d="M98.48 177.231H49.249V196.923H98.48V177.231Z" fill="#62F2E8"/>
<path d="M131.882 277.588L97.0775 312.392L111.002 326.317L145.806 291.512L131.882 277.588Z" fill="#62F2E8"/>
<path d="M340.743 277.601L326.819 291.525L361.623 326.329L375.547 312.405L340.743 277.601Z" fill="#62F2E8"/>
<path d="M423.403 177.231H374.172V196.923H423.403V177.231Z" fill="#62F2E8"/>
<path d="M361.66 47.8354L326.856 82.6395L340.78 96.5637L375.584 61.7596L361.66 47.8354Z" fill="#62F2E8"/>
<path d="M354.48 188.394C354.48 123.212 301.508 70.24 236.326 70.24C171.144 70.24 118.172 123.211 118.172 188.394C118.172 243.276 155.894 289.479 206.787 302.659V324.96H177.249V413.575C177.249 446.167 203.735 472.652 236.326 472.652C268.917 472.652 295.403 446.167 295.403 413.575V324.96H265.864V302.659C316.758 289.479 354.48 243.277 354.48 188.394ZM236.326 107.188C280.449 107.188 316.219 142.957 316.219 187.08H236.326V107.188ZM246.172 423.388H226.48V403.696H246.172V423.388ZM246.172 384.003H226.48V364.311H246.172V384.003ZM246.172 324.96H226.48V306.049C229.735 306.321 233.002 306.549 236.326 306.549C239.65 306.549 242.917 306.321 246.172 306.049V324.96ZM236.326 266.972C192.202 266.972 156.433 231.203 156.433 187.08C156.433 155.21 175.093 127.7 202.084 114.878C205.743 113.137 209.555 111.671 213.495 110.498L213.5 110.502V209.906H312.903L312.91 209.911C311.736 213.851 310.267 217.664 308.529 221.325C295.706 248.315 268.195 266.972 236.326 266.972Z" fill="#62F2E8"/>
</g>
<defs>
<clipPath id="clip0_8_61">
<rect width="472.652" height="472.652" fill="white"/>
</clipPath>
</defs>
</svg>
