<svg width="330" height="330" viewBox="0 0 330 330" fill="none" xmlns="http://www.w3.org/2000/svg">
<g clip-path="url(#clip0_6_2)">
<path d="M165 0C74.019 0 0 74.019 0 165C0 255.981 74.019 330 165 330C189.814 330 210 309.813 210 285C210 260.187 189.814 240 165 240C156.729 240 150 233.271 150 225C150 216.729 156.729 210 165 210H311.996C319.13 210 325.276 204.976 326.696 197.985C328.889 187.19 330 176.093 330 165C330 74.019 255.981 0 165 0ZM299.174 180H165C140.187 180 120 200.187 120 225C120 249.813 140.187 270 165 270C173.271 270 180 276.729 180 285C180 293.271 173.271 300 165 300C90.561 300 30 239.439 30 165C30 90.561 90.561 30 165 30C239.439 30 300 90.561 300 165C300 170.015 299.724 175.029 299.174 180Z" fill="#62F2E8"/>
<path d="M226.413 126.088C238.839 126.088 248.913 116.014 248.913 103.588C248.913 91.1616 238.839 81.088 226.413 81.088C213.987 81.088 203.913 91.1616 203.913 103.588C203.913 116.014 213.987 126.088 226.413 126.088Z" fill="#62F2E8"/>
<path d="M165.002 100.65C177.428 100.65 187.502 90.5764 187.502 78.15C187.502 65.7236 177.428 55.65 165.002 55.65C152.576 55.65 142.502 65.7236 142.502 78.15C142.502 90.5764 152.576 100.65 165.002 100.65Z" fill="#62F2E8"/>
<path d="M103.589 126.087C116.015 126.087 126.089 116.013 126.089 103.587C126.089 91.1606 116.015 81.087 103.589 81.087C91.1626 81.087 81.089 91.1606 81.089 103.587C81.089 116.013 91.1626 126.087 103.589 126.087Z" fill="#62F2E8"/>
</g>
<defs>
<clipPath id="clip0_6_2">
<rect width="330" height="330" fill="white"/>
</clipPath>
</defs>
</svg>
