<svg width="128" height="100" viewBox="0 0 128 100" fill="none" xmlns="http://www.w3.org/2000/svg">
<path d="M111.412 45.1094C111.673 42.8919 111.961 41.0085 111.961 38.791C111.961 17.3451 97.0188 0 78.5241 0C68.7282 0 59.7682 4.73876 53.5249 12.9405C49.9984 10.723 45.9233 9.47752 41.8482 9.47752C29.0743 9.47752 18.4686 20.2005 16.5616 34.7205C6.53061 40.3706 0 52.3694 0 65.6136C0 84.5383 13.3224 100 29.6229 100H103.262C116.846 100 127.713 87.3937 128 71.932C128 59.6294 121.208 48.9064 111.412 45.1094V45.1094ZM103.262 93.6816H29.6229C16.3004 93.6816 5.43347 81.0753 5.43347 65.6136C5.43347 54.2527 11.1282 44.1677 20.1143 39.7631C20.9241 39.4593 21.7339 38.4872 21.7339 37.2418C22.5437 24.9392 30.9812 15.7959 41.5608 15.7959C45.6359 15.7959 49.1624 17.0717 52.9763 18.955C54.0735 19.8967 55.6931 19.593 56.5029 18.3171C61.6751 10.4192 69.8253 5.71081 78.5241 5.71081C94.0147 5.71081 106.527 20.2309 106.527 38.1835C106.527 40.7047 106.266 43.5298 105.718 46.0814C104.986 48.8761 106.815 49.8785 107.624 50.1823C116.323 52.3998 122.305 61.209 122.305 71.6282C122.305 83.9004 113.868 93.6816 103.262 93.6816V93.6816Z" fill="#62F2E8"/>
<path d="M39.2098 42.8008C42.2138 42.8008 44.6693 45.6259 44.6693 49.1192C44.6693 50.3039 45.4791 51.2455 46.4979 51.2455C47.5167 51.2455 48.3265 50.3039 48.3265 49.1192C48.3265 43.2869 44.2253 38.5481 39.2098 38.5481C34.1681 38.5481 30.093 43.2869 30.093 49.1192C30.093 54.9515 34.1942 59.6903 39.2098 59.6903C42.2138 59.6903 44.6693 62.5153 44.6693 66.0086C44.6693 69.5019 42.2138 72.3269 39.2098 72.3269C36.2057 72.3269 33.7502 69.5019 33.7502 66.0086C33.7502 64.8239 32.9404 63.8822 31.9216 63.8822C30.9028 63.8822 30.093 64.8239 30.093 66.0086C30.093 71.8409 34.1942 76.5797 39.2098 76.5797C44.2514 76.5797 48.3265 71.8409 48.3265 66.0086C48.3265 60.1763 44.2253 55.4679 39.2098 55.4679C36.2057 55.4679 33.7502 52.6429 33.7502 49.1496C33.7502 45.6562 36.2057 42.8008 39.2098 42.8008V42.8008Z" fill="#62F2E8"/>
<path d="M69.2245 42.8008C70.2432 42.8008 71.053 41.8592 71.053 40.6745C71.053 39.4898 70.2432 38.5481 69.2245 38.5481H54.4392C53.4204 38.5481 52.6106 39.4898 52.6106 40.6745V74.5141C52.6106 75.6988 53.4204 76.6404 54.4392 76.6404H69.2245C70.2432 76.6404 71.053 75.6988 71.053 74.5141C71.053 73.3294 70.2432 72.3877 69.2245 72.3877H56.2677V59.7206H69.2245C70.2432 59.7206 71.053 58.779 71.053 57.5943C71.053 56.4096 70.2432 55.4679 69.2245 55.4679H56.2677V42.8008H69.2245Z" fill="#62F2E8"/>
<path d="M85.6032 38.5481C82.2073 38.5481 79.0465 40.6137 76.6955 44.3804C74.5012 47.9345 73.2734 52.6125 73.2734 57.5943C73.2734 62.576 74.4751 67.2541 76.6955 70.8081C79.0204 74.5748 82.1812 76.6404 85.6032 76.6404C89.0253 76.6404 92.16 74.5748 94.511 70.8081C96.7053 67.2541 97.933 62.576 97.933 57.5943C97.933 52.6125 96.7314 47.9345 94.511 44.3804C92.16 40.6137 88.9992 38.5481 85.6032 38.5481ZM85.6032 72.3573C80.8228 72.3573 76.9567 65.7352 76.9567 57.5639C76.9567 49.4229 80.849 42.7705 85.6032 42.7705C90.3836 42.7705 94.2498 49.3926 94.2498 57.5639C94.2498 65.7352 90.3836 72.3573 85.6032 72.3573Z" fill="#62F2E8"/>
</svg>
